<?xml version="1.0" encoding="utf-8"?>
<!-- Generator: Adobe Illustrator 18.1.0, SVG Export Plug-In . SVG Version: 6.00 Build 0)  -->
<!DOCTYPE svg PUBLIC "-//W3C//DTD SVG 1.1//EN" "http://www.w3.org/Graphics/SVG/1.1/DTD/svg11.dtd">
<svg version="1.1" id="Logo_BMG" xmlns="http://www.w3.org/2000/svg" xmlns:xlink="http://www.w3.org/1999/xlink" x="0px" y="0px"
	 viewBox="0 0 202 20" enable-background="new 0 0 202 20" xml:space="preserve">
<path fill="#0086C2" d="M16.4,0L16.4,0L16.4,0L16.4,0L16.4,0L4,0C1.8,0,0,1.7,0,3.9c0,0,0,0,0,0l0,12.2C0,18.2,1.7,20,3.9,20
	c0,0,0,0,0,0l12.3,0c0.1,0,0.1,0,0.2,0c0,0,0,0,0.1,0c2.1,0,3.8-1.7,3.9-3.8c0,0,0-0.1,0-0.1l0-12.2C20.4,1.7,18.6,0,16.4,0z
	 M19.1,16.1c0,1.5-1.2,2.6-2.7,2.6h-0.1c-1.4-0.1-2.5-1.2-2.5-2.6l0-6.7c0,0,0-0.1,0-0.1c0-1.4,1.2-2.6,2.7-2.6
	c0.3,0,0.6-0.3,0.6-0.6c0-0.4-0.3-0.6-0.6-0.6c-2.1,0-3.9,1.7-3.9,3.7c0,0,0,0.1,0,0.1l0,6.8c0,1,0.4,1.9,1,2.6l-6.7,0
	c0.6-0.7,1-1.6,1-2.6c0,0,0,0,0-0.1l0-6.8c0-2.1-1.8-3.9-4-3.9c-0.3,0-0.6,0.3-0.6,0.6c0,0.3,0.3,0.6,0.6,0.6c1.5,0,2.7,1.2,2.7,2.6
	l0,6.7c0,0,0,0,0,0c0,1.5-1.2,2.6-2.7,2.6c-1.5,0-2.7-1.2-2.7-2.6l0-12.2c0,0,0,0,0,0c0-1.4,1.2-2.6,2.7-2.6l12.5,0
	c1.5,0,2.7,1.2,2.7,2.6l0,12.1C19.1,16,19.1,16.1,19.1,16.1z M42.5,3.9L42.5,3.9c0-2.1-1.7-3.8-3.9-3.9c0,0,0,0-0.1,0L26.1,0
	c-2.2,0-3.9,1.7-4,3.8c0,0,0,0,0,0.1l0,12.2c0,2.1,1.7,3.9,3.9,3.9c0,0,0,0,0.1,0l12.5,0c2.2,0,3.9-1.7,3.9-3.8c0,0,0,0,0-0.1
	L42.5,3.9L42.5,3.9z M41.2,16.1c0,1.5-1.2,2.6-2.7,2.6l-12.4,0c0,0,0,0,0,0c-1.5,0-2.7-1.2-2.7-2.6l0-12.1c0,0,0,0,0-0.1
	c0-1.5,1.2-2.6,2.7-2.6l12.4,0c0,0,0,0,0.1,0c1.5,0,2.7,1.2,2.7,2.6c0,1.5-1.2,2.6-2.7,2.6l-6.2,0c0,0,0,0,0,0c-2.2,0-4,1.7-4,3.9
	c0,2.1,1.8,3.9,4,3.9c2.2,0,3.9-1.7,3.9-3.9c0-0.4-0.3-0.6-0.6-0.6c-0.3,0-0.6,0.3-0.6,0.6c0,1.5-1.2,2.6-2.7,2.6
	c-1.5,0-2.7-1.2-2.7-2.6c0-1.4,1.2-2.6,2.6-2.6c0,0,0,0,0,0l6.3,0c1,0,2-0.4,2.7-1V16.1C41.2,16.1,41.2,16.1,41.2,16.1z M55.2,11.5
	c1.3-0.5,2-1.5,2-3.1c0-2.3-1.5-3.5-4.5-3.5h-3.4v13.9h2.9c3.5,0,5.4-1.4,5.4-4C57.7,13.2,56.8,12,55.2,11.5z M52.8,6.4
	c1.8,0,2.8,0.7,2.8,2.1c0,1.6-1.1,2.4-3.1,2.4h-1.3V6.4H52.8z M51.1,12.3h1c2.3,0,3.9,0.4,3.9,2.5c0,2-2,2.5-3.7,2.5h-1.2V12.3z
	 M67.1,16.6v-4.4c0-2.7-1.1-3.9-3.7-3.9c-0.9,0-2.2,0.3-3,0.7l-0.1,0v1.6l0.3-0.2c0.8-0.5,1.8-0.8,2.8-0.8c1.5,0,2.1,0.7,2.1,2.4
	v0.3h-0.1c-2.2,0-6.3,0-6.3,3.6c0,0.5,0.2,3,3.4,3c1,0,2.3-0.5,3-1.4v1.2h1.6l0-0.2C67.1,18,67.1,17.4,67.1,16.6z M65.3,13.8h0.2
	v0.4c0,0.9,0,3.4-2.8,3.4c-0.7,0-1.9-0.2-1.9-1.6C60.9,14.1,63.1,13.8,65.3,13.8z M77.4,12.3v6.5h-1.6v-6.2c0-2-0.7-2.9-2.2-2.9
	c-2,0-2.8,1.8-2.8,3.4v5.7h-1.6v-7.8c0-0.8,0-1.5-0.1-2.3l0-0.2h1.5v1.3c0.5-0.8,1.3-1.6,3.1-1.6C76.2,8.3,77.4,9.7,77.4,12.3z
	 M82.6,13.1l5.6,5.7H86L81.4,14v4.8h-1.6V3.9h1.6v8.5l4.2-3.8h2.1L82.6,13.1z M105.7,4.9h2.2v13.9h-1.7V7.2l-4.7,11.6h-1.4L95.3,7.2
	v11.6h-1.7V4.9H96L96,5l4.8,11.6L105.7,4.9z M114.4,8.3c-2.6,0-4.4,2.2-4.4,5.4c0,3.5,1.6,5.4,4.7,5.4c1,0,2.1-0.2,2.9-0.6l0.1,0
	v-1.7l-0.3,0.2c-0.5,0.3-1.8,0.7-2.7,0.7c-1.8,0-3-1.3-3.1-3.5h6.8v-0.8C118.5,10.2,117,8.3,114.4,8.3z M111.7,12.8
	c0.1-1.5,1.1-3.1,2.7-3.1c1.7,0,2.3,1.6,2.4,3.1H111.7z M128.3,12.3v6.5h-1.6v-6.2c0-2-0.7-2.9-2.2-2.9c-2,0-2.8,1.8-2.8,3.4v5.7
	h-1.6v-7.8c0-0.8,0-1.5-0.1-2.3l0-0.2h1.5v1.3c0.5-0.8,1.3-1.6,3.1-1.6C127.1,8.3,128.3,9.7,128.3,12.3z M137.4,9.8
	c-0.5-0.6-1.4-1.5-3-1.5c-2.7,0-4.3,1.9-4.3,5.4c0,3.3,1.6,5.4,4.3,5.4c1.3,0,2.3-0.5,3-1.4v1.2h1.6V3.9h-1.6V9.8z M134.7,17.7
	c-2.4,0-2.8-2.5-2.8-4c0-1.5,0.4-4,2.8-4c2.2,0,2.8,2.5,2.8,4C137.4,15.2,136.9,17.7,134.7,17.7z M145.1,8.3c-2.6,0-4.4,2.2-4.4,5.4
	c0,3.5,1.6,5.4,4.7,5.4c1,0,2.1-0.2,2.9-0.6l0.1,0v-1.7l-0.3,0.2c-0.5,0.3-1.8,0.7-2.7,0.7c-1.8,0-3-1.3-3.1-3.5h6.8v-0.8
	C149.2,10.2,147.7,8.3,145.1,8.3z M142.5,12.8c0.1-1.5,1.1-3.1,2.7-3.1c1.7,0,2.3,1.6,2.4,3.1H142.5z M156.8,16.1c0,2.1-1.8,3-3.6,3
	c-1.1,0-2-0.2-2.8-0.5l-0.1,0l0.2-1.6l0.2,0.1c0.6,0.3,1.4,0.6,2.5,0.6c1,0,2-0.5,2-1.6c0-1-1-1.5-2.1-2c-1.2-0.6-2.7-1.2-2.7-2.9
	c0-2.1,1.8-2.9,3.4-2.9c0.4,0,1.6,0.1,2.5,0.5l0.1,0l-0.2,1.4l-0.2-0.1c-0.6-0.3-1.4-0.5-2.1-0.5c-1.4,0-2,0.5-2,1.5
	c0,0.7,0.8,1.1,1.8,1.5C155.1,13.3,156.8,14.1,156.8,16.1z M169,11.1h4.8v7l-0.1,0c-1.3,0.6-2.7,0.8-4.3,0.8c-4.3,0-7-2.8-7-7.2
	c0-4.3,2.8-7.2,7-7.2c1.2,0,2.8,0.2,3.7,0.7l0.1,0.1L173,7l-0.2-0.1c-0.9-0.5-1.9-0.7-3.4-0.7c-3.2,0-5.3,2.2-5.3,5.7
	c0,3.5,2,5.7,5.3,5.7c0.9,0,2.1-0.1,2.7-0.4v-4.5H169V11.1z M183.6,16.6v-4.4c0-2.7-1.1-3.9-3.7-3.9c-0.9,0-2.2,0.3-3,0.7l-0.1,0
	v1.6l0.3-0.2c0.8-0.5,1.8-0.8,2.8-0.8c1.5,0,2.1,0.7,2.1,2.4v0.3H182c-2.2,0-6.3,0-6.3,3.6c0,0.5,0.2,3,3.4,3c1,0,2.3-0.5,3-1.4v1.2
	h1.6l0-0.2C183.6,18,183.6,17.4,183.6,16.6z M181.8,13.8h0.2v0.4c0,0.9,0,3.4-2.8,3.4c-0.7,0-1.9-0.2-1.9-1.6
	C177.4,14.1,179.6,13.8,181.8,13.8z M193.9,12.3v6.5h-1.6v-6.2c0-2-0.7-2.9-2.2-2.9c-2,0-2.8,1.8-2.8,3.4v5.7h-1.6v-7.8
	c0-0.8,0-1.5-0.1-2.3l0-0.2h1.5v1.3c0.5-0.8,1.3-1.6,3.1-1.6C192.7,8.3,193.9,9.7,193.9,12.3z M202,16.1c0,2.1-1.8,3-3.6,3
	c-1.1,0-2-0.2-2.8-0.5l-0.1,0l0.2-1.6l0.2,0.1c0.6,0.3,1.4,0.6,2.5,0.6c1,0,2-0.5,2-1.6c0-1-1-1.5-2.1-2c-1.2-0.6-2.7-1.2-2.7-2.9
	c0-2.1,1.8-2.9,3.4-2.9c0.4,0,1.6,0.1,2.5,0.5l0.1,0l-0.2,1.4l-0.2-0.1c-0.6-0.3-1.4-0.5-2.1-0.5c-1.4,0-2,0.5-2,1.5
	c0,0.7,0.8,1.1,1.8,1.5C200.3,13.3,202,14.1,202,16.1z"/>
</svg>
